<?xml version="1.0" encoding="iso-8859-1"?>
<!-- Generator: Adobe Illustrator 19.0.0, SVG Export Plug-In . SVG Version: 6.00 Build 0)  -->
<svg version="1.1" id="Capa_1" xmlns="http://www.w3.org/2000/svg" xmlns:xlink="http://www.w3.org/1999/xlink" x="0px" y="0px"
	 viewBox="0 0 512 512" style="enable-background:new 0 0 512 512;" xml:space="preserve">
<path style="fill:#FF8C8C;" d="M286.952,278.098c-1.783-0.077-3.557-0.112-5.321-0.106c-17.088,0.058-34.173,0.058-51.262,0
	c-1.764-0.006-3.538,0.029-5.321,0.106c-59.182,2.56-106.461,51.508-107.056,110.743c-0.626,62.383,49.755,113.15,111.994,113.15
	c8.957,0,17.665-1.058,26.014-3.044c8.349,1.986,17.057,3.044,26.014,3.044c62.239,0,112.621-50.767,111.994-113.15
	C393.413,329.606,346.135,280.658,286.952,278.098z"/>
<g>
	<circle style="fill:#FF5A5A;" cx="256.13" cy="308.73" r="30.719"/>
	<path style="fill:#FF5A5A;" d="M390.93,199.853c-49.89,0-92.096,32.894-106.117,78.177c0.712,0.017,1.424,0.037,2.139,0.068
		c59.182,2.56,106.461,51.508,107.056,110.743c0.116,11.524-1.514,22.649-4.633,33.134c0.518,0.007,1.035,0.02,1.554,0.02
		c61.342,0,111.07-49.728,111.07-111.07S452.272,199.853,390.93,199.853z"/>
</g>
<circle style="fill:#DC4B4B;" cx="391.25" cy="227.19" r="27.334"/>
<path style="fill:#FF5A5A;" d="M117.992,388.84c0.595-59.235,47.874-108.183,107.056-110.743c0.715-0.031,1.427-0.05,2.139-0.068
	c-14.021-45.283-56.227-78.177-106.117-78.177C59.728,199.853,10,249.581,10,310.924s49.728,111.07,111.07,111.07
	c0.52,0,1.036-0.013,1.554-0.02C119.506,411.49,117.876,400.364,117.992,388.84z"/>
<circle style="fill:#DC4B4B;" cx="117.99" cy="227.19" r="27.334"/>
<polygon style="fill:#46C373;" points="205.906,105.2 172.229,56.567 145.108,77.158 177.92,116.517 "/>
<path style="fill:#A5DC69;" d="M384.087,18.076c0,0-81.822-23.321-123.436,9.363C220.09,59.297,225.9,82.035,195.369,89.877
	c14.213,18.215,74.75,57.432,128.707,15.056C365.048,72.756,350.133,45.713,384.087,18.076z"/>
<path d="M343.859,330.191c-3.838-3.973-10.17-4.078-14.141-0.242c-3.972,3.838-4.08,10.169-0.242,14.141
	c11.782,12.191,18.364,28.249,18.534,45.213c0.178,17.771-6.603,34.505-19.092,47.12c-5.425,5.479-11.644,9.914-18.483,13.184
	c-4.983,2.381-7.093,8.351-4.711,13.334c1.717,3.593,5.297,5.69,9.029,5.69c1.445,0,2.914-0.314,4.305-0.979
	c8.925-4.265,17.024-10.037,24.073-17.158c16.274-16.438,25.109-38.24,24.877-61.391C367.788,367,359.211,346.079,343.859,330.191z"
	/>
<path d="M282.208,455.991h-0.194c-5.522,0-10,4.478-10,10s4.478,10,10,10h0.194c5.522,0,10-4.478,10-10
	S287.73,455.991,282.208,455.991z"/>
<path d="M512,310.923c0-66.758-54.312-121.07-121.07-121.07c0,0-0.001,0-0.002,0h-0.001l0,0c-13.739,0-27.116,2.282-39.764,6.678
	c-8.933-2.561-19.105-5.917-29.877-10.277c-25.927-10.494-59.796-28.75-86.477-58.872c7.511,2.702,15.596,4.765,24.076,5.798
	c3.981,0.485,7.937,0.726,11.858,0.726c21.413,0,41.787-7.189,59.51-21.107c23.666-18.586,30.55-36.077,36.623-51.509
	c5.068-12.877,9.445-23.999,23.523-35.457c2.891-2.353,4.233-6.119,3.482-9.77c-0.75-3.651-3.469-6.582-7.054-7.604
	c-3.542-1.008-87.246-24.312-132.354,11.116c-19.924,15.648-29.634,29.674-36.724,39.915c-6.516,9.411-10.398,15.016-18.486,18.554
	l-18.814-27.17c-1.554-2.243-3.955-3.754-6.649-4.183c-2.693-0.431-5.446,0.261-7.619,1.911l-27.122,20.591
	c-2.154,1.635-3.554,4.073-3.88,6.758s0.448,5.387,2.147,7.491l23.798,29.462c3.935,26.738-2.585,50.988-19.401,72.115
	c-1.654,2.077-3.335,4.027-5.011,5.85c-5.135-0.661-10.355-1.015-15.643-1.015c-0.687,0-1.371,0.015-2.055,0.026
	c-0.343-0.009-0.684-0.026-1.029-0.026c-0.005,0.014-0.01,0.026-0.015,0.039C52.639,191.542,0,245.201,0,310.923
	c0,64.834,51.227,117.924,115.33,120.931c5.94,16.297,15.376,31.262,27.954,43.967c23.092,23.324,53.883,36.17,86.702,36.17
	c8.756,0,17.495-0.938,26.014-2.789c8.519,1.852,17.258,2.789,26.014,2.789c32.819,0,63.61-12.846,86.702-36.17
	c12.578-12.705,22.014-27.669,27.954-43.967C460.773,428.847,512,375.758,512,310.923z M314.339,205.018
	c3.735,1.503,7.391,2.888,10.956,4.173c-2.33,1.51-4.627,3.086-6.869,4.765c-18.344,13.737-32.586,32.733-40.703,54.045
	c-5.51,0.016-11.035,0.025-16.571,0.029c-2.172-10.546-5.242-23.188-9.559-37.135c-9.348-30.203-26.284-71.476-55.771-108.654
	l7.545-2.95C227.829,156.013,266.105,185.603,314.339,205.018z M266.828,35.303c26.271-20.633,72.423-15.955,97.365-11.4
	c-8.097,10.164-12.058,20.229-15.928,30.061c-5.642,14.333-10.97,27.872-30.366,43.104c-16.935,13.3-35.974,18.77-56.597,16.258
	c-15.109-1.841-28.43-7.533-38.648-13.723c22.487-1.888,54.486-8.226,79.911-27.685c4.387-3.357,5.221-9.633,1.864-14.019
	c-3.357-4.387-9.637-5.221-14.019-1.864c-18.878,14.448-42.884,20.409-61.887,22.783c1.927-2.54,3.771-5.202,5.671-7.945
	C241.264,60.663,249.277,49.089,266.828,35.303z M169.955,70.848l21.814,31.503l-9.772,3.821c-1.281-1.371-2.579-2.734-3.899-4.085
	l-18.736-23.196L169.955,70.848z M181.82,136.803c26.446,34.075,41.879,71.748,50.511,99.5c3.628,11.665,6.341,22.432,8.358,31.715
	c-2.135-0.004-4.266-0.01-6.396-0.016c-13.188-34.885-41.264-61.05-75.608-72.209C172.273,178.111,180.068,158.11,181.82,136.803z
	 M20,310.923c0-53.167,41.265-96.875,93.449-100.784c-0.172,0.1-0.276,0.159-0.288,0.166c-4.827,2.659-6.595,8.724-3.946,13.561
	c1.817,3.32,5.244,5.2,8.78,5.2c1.623,0,3.27-0.396,4.793-1.23c0.364-0.199,4.817-2.67,11.129-7.47
	c0.901,2.095,1.403,4.4,1.403,6.822c0,9.558-7.776,17.333-17.334,17.333c-4.63,0-8.983-1.803-12.257-5.077
	c-3.906-3.905-10.236-3.905-14.143,0c-3.905,3.905-3.905,10.237,0,14.143c7.052,7.051,16.427,10.935,26.399,10.935
	c20.586,0,37.334-16.748,37.334-37.334c0-4.235-0.719-8.302-2.024-12.1c26.32,8.802,48.14,28.188,59.835,54.062
	c-26.826,3.72-51.624,16.303-70.772,36.117c-21.849,22.606-34.053,52.251-34.366,83.474c-0.077,7.672,0.557,15.237,1.855,22.628
	C59.38,405.766,20,362.861,20,310.923z M354.503,461.75c-19.307,19.501-45.05,30.241-72.489,30.241
	c-7.993,0-15.967-0.933-23.699-2.772c-0.761-0.181-1.538-0.271-2.314-0.271s-1.554,0.091-2.314,0.271
	c-7.732,1.84-15.706,2.772-23.699,2.772c-27.439,0-53.183-10.74-72.489-30.241c-19.303-19.498-29.781-45.355-29.505-72.809
	c0.544-54.212,43.366-98.512,97.488-100.854c1.618-0.07,3.247-0.111,4.855-0.096c4.687,0.016,9.393,0.026,14.105,0.033
	c1.294,8.286,1.708,13.168,1.718,13.283c0.419,5.232,4.796,9.201,9.957,9.201c0.266,0,0.534-0.011,0.803-0.032
	c5.506-0.438,9.614-5.256,9.177-10.761c-0.032-0.401-0.321-3.866-1.129-9.72c7.023,3.327,11.905,10.464,11.905,18.738
	c0,11.438-9.306,20.744-20.744,20.744s-20.744-9.306-20.744-20.744c0-5.522-4.478-10-10-10s-10,4.478-10,10
	c0,22.467,18.277,40.744,40.744,40.744s40.744-18.277,40.744-40.744c0-7.396-1.991-14.331-5.449-20.316
	c51.783,4.715,92.059,47.959,92.586,100.523C384.284,416.394,373.806,442.252,354.503,461.75z M402.152,411.367
	c1.298-7.391,1.932-14.956,1.855-22.628c-0.313-31.223-12.518-60.867-34.366-83.474c-19.153-19.818-43.958-32.402-70.791-36.119
	c10.686-23.71,29.82-41.943,53.184-51.606c18,4.773,29.991,6.259,30.775,6.353c0.404,0.049,0.806,0.072,1.203,0.072
	c4.986,0,9.298-3.727,9.911-8.802c0.22-1.819-0.073-3.579-0.751-5.149c8.498,1.107,15.088,8.376,15.088,17.171
	c0,9.558-7.776,17.333-17.334,17.333c-4.63,0-8.982-1.803-12.256-5.077c-3.906-3.905-10.236-3.905-14.143,0
	c-3.905,3.905-3.905,10.237,0,14.143c7.052,7.051,16.427,10.935,26.398,10.935c20.586,0,37.334-16.748,37.334-37.334
	c0-3.756-0.563-7.382-1.6-10.804C464.808,230.849,492,267.767,492,310.923C492,362.861,452.62,405.766,402.152,411.367z"/>
<g>
</g>
<g>
</g>
<g>
</g>
<g>
</g>
<g>
</g>
<g>
</g>
<g>
</g>
<g>
</g>
<g>
</g>
<g>
</g>
<g>
</g>
<g>
</g>
<g>
</g>
<g>
</g>
<g>
</g>
</svg>
