<?xml version="1.0" encoding="iso-8859-1"?>
<!-- Generator: Adobe Illustrator 19.0.0, SVG Export Plug-In . SVG Version: 6.00 Build 0)  -->
<svg version="1.1" id="Capa_1" xmlns="http://www.w3.org/2000/svg" xmlns:xlink="http://www.w3.org/1999/xlink" x="0px" y="0px"
	 viewBox="0 0 511.999 511.999" style="enable-background:new 0 0 511.999 511.999;" xml:space="preserve">
<path style="fill:#46C373;" d="M221.497,288.6l167.658-63.443c50.449-19.09,91.108-57.656,112.835-107.027l0,0l-205.126,92.371
	L221.497,288.6z"/>
<path style="fill:#FFFFFF;" d="M221.497,288.6c0,0-92.119,154.629-112.891,188.356c-18.214,29.576-54.494,31.808-78.107,12.699
	c-23.613-19.11-29.262-55.334-3.923-79.083c28.934-27.12,160.468-149.853,160.468-149.853L221.497,288.6z"/>
<path style="fill:#A5DC69;" d="M221.497,288.6l-34.454-27.882l92.826-147.016c26.145-41.408,64.809-73.403,110.378-91.339l0,0
	L221.497,288.6z"/>
<path style="fill:#D7FA91;" d="M220.001,287.39L497.586,9.999l0,0c-40.539-0.026-79.432,16.036-108.141,44.657l-54.671,54.506
	L220.001,287.39z"/>
<path d="M127.951,354.228c-4.038-3.766-10.365-3.547-14.132,0.491c-0.242,0.26-24.498,26.26-48.791,51.887
	c-3.798,4.008-3.629,10.336,0.378,14.136c1.935,1.833,4.407,2.742,6.877,2.742c2.649,0,5.292-1.046,7.259-3.12
	c24.349-25.687,48.658-51.744,48.9-52.004C132.209,364.322,131.988,357.995,127.951,354.228z"/>
<path d="M41.391,431.173c-0.022,0.021-0.084,0.083-0.106,0.104c-3.892,3.892-3.886,10.178-0.013,14.088
	c1.95,1.968,4.52,2.952,7.094,2.952c2.54,0,5.081-0.958,7.032-2.873c0.022-0.021,0.084-0.083,0.106-0.104
	c3.892-3.892,3.886-10.178,0.013-14.088C51.643,427.344,45.319,427.318,41.391,431.173z"/>
<path d="M509.032,111.031c-2.938-2.915-7.37-3.715-11.145-2.017l-155.157,69.87L504.653,17.071
	c2.861-2.859,3.717-7.158,2.172-10.894c-1.545-3.736-5.188-6.174-9.233-6.177c-0.037,0-0.067,0-0.104,0
	c-39.338,0-76.567,13.85-106.099,39.239l7.304-11.524c2.316-3.654,2.02-8.385-0.736-11.72c-2.757-3.336-7.347-4.521-11.37-2.937
	c-47.876,18.844-87.701,51.8-115.171,95.305l-92.137,145.925c-11.879,11.084-132.21,123.372-159.54,148.987
	C6.403,415.774-0.589,432.318,0.049,449.859c0.667,18.343,9.474,35.681,24.16,47.567c11.729,9.492,26.105,14.573,40.627,14.573
	c3.47,0,6.951-0.29,10.403-0.881c17.346-2.964,32.22-13.234,41.881-28.921c18.97-30.801,98.23-163.753,111.181-185.482l76.292-28.87
	c5.165-1.954,7.768-7.726,5.812-12.89c-1.954-5.164-7.723-7.766-12.89-5.812l-40.392,15.285l45.657-45.626l176.618-79.534
	c-22.038,34.685-55.089,61.895-93.781,76.536l-22.761,8.613c-5.165,1.955-7.768,7.726-5.812,12.89
	c1.514,3.999,5.315,6.463,9.353,6.463c1.176,0,2.372-0.209,3.536-0.65l22.761-8.613c26.355-9.973,50.086-24.862,70.531-44.255
	c20.445-19.392,36.568-42.303,47.919-68.095C512.81,118.369,511.97,113.944,509.032,111.031z M346.667,111.423l49.838-49.687
	c20.638-20.576,46.452-34.083,74.497-39.307L290.52,202.786c-0.503,0.414-0.959,0.87-1.365,1.364l-6.253,6.248l61.761-97.441
	C345.377,112.538,346.054,112.035,346.667,111.423z M288.324,119.04c19.008-30.103,44.468-54.697,74.684-72.377L219.062,273.766
	l-17.589-14.235l-1.228-0.994L288.324,119.04z M100.093,471.712c-8.462,13.74-20.018,18.295-28.222,19.696
	c-12.236,2.09-25.019-1.383-35.083-9.526c-10.043-8.127-16.308-20.37-16.758-32.749c-0.3-8.261,1.778-20.391,13.382-31.267
	c24.94-23.377,127.433-119.025,154.097-143.908l20.964,16.965C189.823,322.212,117.975,442.679,100.093,471.712z"/>
<path d="M335.699,235.385c-2.641,0-5.209,1.07-7.069,2.93c-1.86,1.86-2.93,4.439-2.93,7.069c0,2.64,1.069,5.209,2.93,7.069
	c1.86,1.87,4.438,2.93,7.069,2.93c2.63,0,5.209-1.06,7.068-2.93c1.86-1.86,2.931-4.429,2.931-7.069c0-2.63-1.07-5.209-2.931-7.069
	C340.908,236.455,338.329,235.385,335.699,235.385z"/>
<g>
</g>
<g>
</g>
<g>
</g>
<g>
</g>
<g>
</g>
<g>
</g>
<g>
</g>
<g>
</g>
<g>
</g>
<g>
</g>
<g>
</g>
<g>
</g>
<g>
</g>
<g>
</g>
<g>
</g>
</svg>
