<?xml version="1.0" encoding="iso-8859-1"?>
<!-- Generator: Adobe Illustrator 19.0.0, SVG Export Plug-In . SVG Version: 6.00 Build 0)  -->
<svg version="1.1" id="Capa_1" xmlns="http://www.w3.org/2000/svg" xmlns:xlink="http://www.w3.org/1999/xlink" x="0px" y="0px"
	 viewBox="0 0 511.999 511.999" style="enable-background:new 0 0 511.999 511.999;" xml:space="preserve">
<path style="fill:#C88C64;" d="M126.213,66.357c-1.958-11.26-10.625-26.944-23.018-37.23l19.254-19.15
	c17.834,13.752,29.873,34.81,33.114,49.857L126.213,66.357z"/>
<path style="fill:#A5DC69;" d="M282.663,34.88c0,0-69.603-59.104-134.453,5.747C208.703,101.12,282.663,34.88,282.663,34.88z"/>
<path style="fill:#46C373;" d="M152.309,63.863L152.309,63.863c29.719,0,54.721,22.27,58.145,51.791l9.214,79.449
	c5.172,44.599,18.735,87.818,39.974,127.375v0.001c31.621,58.895,9.879,132.269-48.724,164.43l0,0
	c-36.506,20.034-80.715,20.034-117.22,0l0,0c-58.603-32.16-80.345-105.535-48.724-164.43l0,0
	c21.239-39.557,34.802-82.775,39.974-127.375l9.214-79.449C97.588,86.133,122.59,63.863,152.309,63.863L152.309,63.863z"/>
<path style="fill:#D7FA91;" d="M201.577,105.262L201.577,105.262c25.737-14.859,58.525-8.074,76.251,15.781l47.705,64.198
	c26.779,36.038,60.134,66.685,98.306,90.322l0,0c56.832,35.193,74.691,109.609,40.019,166.762l0,0
	c-21.598,35.602-59.884,57.707-101.516,58.611l0,0c-66.831,1.45-122.348-51.223-124.41-118.039l0,0
	c-1.385-44.877-11.248-89.087-29.068-130.298l-31.745-73.412C165.322,151.91,175.84,120.121,201.577,105.262L201.577,105.262z"/>
<path style="fill:#FF6E37;" d="M293.54,410.474c26.622,46.11,96.019,52.127,129.13-3.134c5.286-8.821,7.983-18.979,7.805-29.26
	c-0.634-36.778-21.503-62.133-47.869-72.159l0.004-0.003l-85.307-34.698l-12.56,90.764l0.037-0.021
	C282.063,378.084,284.728,395.21,293.54,410.474z"/>
<path d="M152.302,452.093l-0.461-0.002c-0.02,0-0.038,0-0.058,0c-5.484,0-9.947,4.431-9.978,9.922
	c-0.031,5.51,4.412,10.004,9.922,10.036l0.574,0.002c5.51,0,9.979-4.469,9.979-9.979S157.813,452.093,152.302,452.093z"/>
<path d="M117.701,443.167c-34.453-18.907-47.36-62.46-28.768-97.087c2.606-4.856,0.784-10.906-4.071-13.512
	c-4.857-2.607-10.905-0.784-13.512,4.071C47.6,380.873,64.087,436.51,108.1,460.663c1.523,0.836,3.168,1.232,4.792,1.232
	c3.525,0,6.941-1.872,8.756-5.18C124.301,451.885,122.533,445.82,117.701,443.167z"/>
<path d="M487.866,348.381c-8.163-34.013-29.035-62.887-58.773-81.303c-25.382-15.718-48.656-34.684-69.174-56.372
	c-3.79-4.004-10.103-4.179-14.108-0.391c-4.004,3.788-4.178,10.104-0.39,14.107c21.702,22.939,46.319,43,73.165,59.625
	c51.954,32.173,68.437,100.854,36.741,153.103c-19.936,32.86-54.777,52.976-93.2,53.809c-0.816,0.019-1.627,0.027-2.44,0.027
	c-60.013-0.003-109.92-48.132-111.781-108.397c-1.431-46.335-11.485-91.402-29.883-133.95l-31.746-73.411
	c-9.786-22.632-1.064-48.995,20.289-61.323c21.351-12.328,48.544-6.701,63.253,13.09l18.111,24.373
	c3.286,4.424,9.538,5.345,13.96,2.059c4.425-3.287,5.345-9.538,2.059-13.961l-18.111-24.373
	c-17.205-23.153-46.516-32.549-73.204-25.179c-2.737-5.09-6.066-9.749-9.886-13.905c1.201,0.048,2.404,0.09,3.615,0.09
	c11.261,0,22.973-2.067,35.018-6.227c27.634-9.545,47.125-26.826,47.941-27.557c2.147-1.924,3.358-4.682,3.32-7.565
	c-0.038-2.883-1.321-5.609-3.519-7.475c-0.781-0.664-19.449-16.33-46.842-23.493c-23.665-6.188-58.009-6.935-91.97,21.426
	c-5.79-8.334-13.071-16.424-21.769-23.131c-3.965-3.058-9.582-2.703-13.13,0.827L96.159,22.053
	c-1.994,1.983-3.058,4.715-2.932,7.523c0.127,2.809,1.433,5.434,3.596,7.23c9.483,7.872,16.187,19.225,18.729,27.785
	c-16.89,10.753-28.843,28.73-31.3,49.914l-9.213,79.448c-5.049,43.537-18.122,85.191-38.855,123.804
	c-16.546,30.818-20.186,66.258-10.248,99.796c9.937,33.537,32.297,61.274,62.963,78.103c19.853,10.895,41.631,16.341,63.41,16.341
	s43.559-5.447,63.411-16.342c15.792-8.666,29.671-20.528,40.663-34.651c3.843,4.831,8.043,9.428,12.598,13.749
	c24.666,23.402,56.756,36.19,90.65,36.189c0.975,0,1.952-0.011,2.93-0.031c45.281-0.983,86.339-24.688,109.831-63.411
	C490.532,417.594,496.027,382.393,487.866,348.381z M265.766,35.196c-7.47,5.095-18.518,11.604-31.43,15.99
	c-26.932,9.147-50.86,5.562-71.272-10.642C204.695,5.842,246.727,23.613,265.766,35.196z M117.434,29.041l5.496-5.467
	c9.906,9.579,16.925,21.201,20.601,30.884c-3.293,0.422-6.518,1.074-9.656,1.949C130.624,46.951,124.735,37.151,117.434,29.041z
	 M206.118,478.161c-33.695,18.49-73.926,18.489-107.621-0.001c-53.573-29.4-73.64-97.12-44.731-150.961
	c21.928-40.841,35.754-84.898,41.096-130.946l9.213-79.449c2.84-24.492,23.576-42.962,48.233-42.962
	c17.475,0,33.387,9.321,41.995,24.169c-28.456,17.924-39.8,54.025-26.346,85.137l31.746,73.412
	c17.395,40.228,26.901,82.837,28.253,126.644c0.662,21.444,6.406,41.962,16.599,60.181
	C234.717,457.739,221.484,469.728,206.118,478.161z"/>
<path d="M317.778,191.536c1.958,2.637,4.968,4.03,8.019,4.03c2.068,0,4.154-0.641,5.941-1.968c4.425-3.285,5.348-9.536,2.062-13.96
	l-0.257-0.346c-3.286-4.425-9.537-5.346-13.96-2.062c-4.425,3.285-5.348,9.536-2.062,13.96L317.778,191.536z"/>
<path d="M292.315,262.577c-2.667,1.54-4.474,4.224-4.896,7.275l-12.56,90.764c-0.026,0.191-0.048,0.382-0.063,0.572
	c-2.933,18.65,0.642,37.891,10.103,54.276c14.621,25.325,41.888,41.205,71.16,41.441c0.234,0.002,0.463,0.003,0.697,0.003
	c30.418-0.002,57.536-16.168,74.475-44.439c6.244-10.42,9.433-22.372,9.223-34.561c-0.648-37.571-21.349-68.666-54.046-81.219
	c-0.013-0.005-0.024-0.01-0.037-0.015l-85.307-34.698C298.212,260.817,294.982,261.037,292.315,262.577z M378.61,315.064
	c0.147,0.064,0.297,0.126,0.449,0.184c25.435,9.671,40.926,33.225,41.439,63.005c0.146,8.456-2.064,16.741-6.388,23.959
	c-13.243,22.101-34.129,34.739-57.369,34.739c-0.173,0-0.347,0-0.52-0.002c-22.231-0.181-42.937-12.236-54.037-31.463
	c-7.297-12.636-9.982-27.504-7.562-41.864c0.062-0.367,0.103-0.735,0.123-1.103l10.685-77.22L378.61,315.064z"/>
<g>
</g>
<g>
</g>
<g>
</g>
<g>
</g>
<g>
</g>
<g>
</g>
<g>
</g>
<g>
</g>
<g>
</g>
<g>
</g>
<g>
</g>
<g>
</g>
<g>
</g>
<g>
</g>
<g>
</g>
</svg>
