<?xml version="1.0" encoding="iso-8859-1"?>
<!-- Generator: Adobe Illustrator 19.0.0, SVG Export Plug-In . SVG Version: 6.00 Build 0)  -->
<svg version="1.1" id="Capa_1" xmlns="http://www.w3.org/2000/svg" xmlns:xlink="http://www.w3.org/1999/xlink" x="0px" y="0px"
	 viewBox="0 0 512.001 512.001" style="enable-background:new 0 0 512.001 512.001;" xml:space="preserve">
<path style="fill:#D7FA91;" d="M453.516,388.084c30.235-35.557,48.478-81.626,48.478-131.956c0-70.831-36.138-133.213-90.976-169.74
	C373.665,39.822,316.299,10,251.959,10c-70.236,0-132.171,35.529-168.821,89.593C38.443,136.98,10.006,193.16,10.006,255.988
	c0,17.332,2.163,34.159,6.235,50.225L453.516,388.084z"/>
<path style="fill:#A5DC69;" d="M458.007,271.301c0-37.562-23.504-69.632-56.606-82.311c-6.587-2.523-10.906-8.776-10.885-15.83
	c0-0.074,0-0.149,0-0.223c0-41.973-34.026-75.999-75.999-75.999c-1.474,0-2.939,0.042-4.392,0.125
	c-20.602,1.179-41.032-3.349-59.936-11.623c-8.346-3.653-17.565-5.68-27.259-5.68c-29.506,0-54.627,18.771-64.076,45.022
	c-1.929,5.36-6.951,8.923-12.647,8.896c-0.154-0.001-0.309-0.001-0.463-0.001c-54.922,0-99.446,44.523-99.446,99.446
	c0,9.688,1.391,19.051,3.975,27.905c-25.404,18.842-41.516,49.504-40.191,83.858c1.985,51.463,43.592,93.227,95.047,95.42
	c10.663,0.454-2.839,26.36,6.877,23.696c13.973,38.02,74.312,38,117.178,38c13.156,0,25.714-2.555,37.207-7.196
	c29.932-12.088,61.831-18.536,94.112-18.504c0.401,0,0.803-0.002,1.205-0.007c48.696-0.584,88.625-40.206,89.565-88.896
	c0.148-7.664-0.656-15.117-2.3-22.247c-4.983-21.601-3.021-44.104,4.221-65.055C456.313,291.072,458.007,281.385,458.007,271.301z"
	/>
<path style="fill:#D7FA91;" d="M212.857,369.857c13.662-18.704,26.173-38.78,36.764-60.11c23.553-6.453,55.184-17.211,79.385-44.428
	c5.529-6.218-1.782-15.466-9.15-11.6c-20.903,10.967-41.421,13.455-52.586,13.912c10.377-30.271,16.537-62.607,16.695-96.734
	c0.057-12.377-17.378-15.117-21.142-3.326c-15.29,47.906-38.215,89.286-63.464,124.133c-2.652-18.861-12.624-46.22-33.404-68.473
	c-5.98-6.404-16.272,0.88-12.16,8.616c20.393,38.367,20.251,74.995,18.095,94.425c-11.558,13.315-23.201,25.357-34.476,36.132
	c-1.451-10.9-5.329-25.138-15.324-35.653c-7.637-8.034-20.872-0.398-17.834,10.262c5.968,20.934,2.869,43.041,0.544,54.19
	c-32.44,26.445-48.372,33.894-48.372,33.894c-3.88,23.659,22.078,51.207,55.152,49.093c24.457-18.852,43.273-36.306,68.163-63.781
	c37.491,2.968,107.418,2.483,162.319-19.507c10.184-4.079,6.231-19.352-4.656-18.002
	C266.95,381.642,229.568,375.002,212.857,369.857z"/>
<path d="M153.248,45.465c1.633,0,3.288-0.401,4.819-1.245l0.21-0.117c4.807-2.72,6.49-8.816,3.771-13.624
	c-2.719-4.806-8.828-6.496-13.637-3.774c-4.836,2.666-6.596,8.749-3.93,13.585C146.305,43.597,149.723,45.465,153.248,45.465z"/>
<path d="M511.994,256.128c0-71.177-35.166-137.302-94.147-177.201C377.008,28.744,316.638,0,251.959,0
	c-21.759,0-43.228,3.259-63.81,9.687c-5.271,1.646-8.21,7.255-6.563,12.526c1.646,5.272,7.257,8.21,12.526,6.564
	C212.762,22.953,232.224,20,251.959,20c53.571,0,103.887,21.761,140.414,60.224c-2.08,9.86-6.848,16.564-14.185,19.919
	c-5.918,2.707-11.743,4.298-11.743,4.298c-14.44-10.974-32.432-17.503-51.926-17.503c-1.646,0-3.316,0.048-4.964,0.142
	c-18.002,1.033-36.628-2.603-55.355-10.8c-9.882-4.326-20.401-6.519-31.269-6.519c-31.046,0-59.128,18.556-71.495,46.682
	c-4.048-2.416-11.096-7.558-17.156-16.759c-3.038-4.612-9.24-5.889-13.853-2.851c-4.612,3.038-5.888,9.239-2.851,13.852
	c3.848,5.843,8.029,10.506,12.014,14.188c-52.716,7.833-93.291,53.391-93.291,108.251c0,8.137,0.896,16.218,2.672,24.105
	c-6.753,5.7-12.738,12.172-17.872,19.225c-0.712-6.782-1.092-13.613-1.092-20.466c0-57.545,25.35-111.753,69.548-148.725
	c0.713-0.597,1.34-1.29,1.861-2.059c10.366-15.292,22.848-29.021,37.097-40.809c4.256-3.521,4.852-9.824,1.331-14.08
	c-3.521-4.256-9.822-4.851-14.079-1.332c-15.351,12.698-28.841,27.443-40.113,43.84C27.558,133.583,0.007,192.969,0.007,255.988
	c0,16.832,1.986,33.563,5.857,49.791C2.036,317,0.007,328.877,0.007,340.952c0,35.758,17.11,68.671,46.055,89.219
	c0.077,11.406,4.922,23.113,13.844,32.962c12.162,13.426,29.937,21.168,48.205,21.168c0.035,0,0.069-0.002,0.104-0.002
	c35.743,27.693,80.952,27.702,120.971,27.702c14.208,0,28.035-2.686,41.098-7.983c28.993-11.757,59.221-17.717,89.851-17.717
	c0.103,0,0.211,0,0.314,0c0.45,0,0.898-0.001,1.342-0.007c26.164-0.304,50.892-10.704,69.626-29.283
	c17.006-16.864,27.31-38.719,29.454-62.171c0.087-0.095,0.181-0.18,0.265-0.279C493.932,355.991,511.994,306.828,511.994,256.128z
	 M408.025,96.467c52.629,36.267,83.969,95.706,83.969,159.661c0,38.672-11.594,76.355-32.98,108.16
	c-0.102-0.472-0.195-0.946-0.304-1.416c-4.358-18.87-2.998-39.448,3.936-59.51c3.558-10.295,5.361-21.081,5.361-32.062
	c0-20.25-6.12-39.691-17.699-56.223c-11.311-16.149-26.985-28.4-45.329-35.426c-2.72-1.042-4.471-3.578-4.462-6.491v-0.224
	c0-19.919-6.826-38.263-18.236-52.858C391.876,116.767,401.973,109.735,408.025,96.467z M74.728,449.705
	c-5.169-5.706-8.221-12.341-8.63-18.478c7.413-4.284,22.394-13.826,45.021-32.272c1.777-1.449,3.003-3.465,3.471-5.71
	c2.539-12.179,5.822-36.033-0.717-58.973c-0.106-0.373-0.061-0.427,0.015-0.515c0.212-0.245,0.561-0.373,0.668-0.354
	c0.001,0,0.103,0.044,0.286,0.237c8.318,8.751,11.476,21.189,12.66,30.083c0.496,3.731,3.046,6.867,6.598,8.115
	c3.547,1.249,7.502,0.396,10.224-2.205c12.336-11.789,24.151-24.173,35.118-36.806c1.331-1.533,2.163-3.436,2.388-5.453
	c1.849-16.658,2.444-47.151-10.408-80.863c10.611,16.471,16.247,33.863,18.036,46.583c0.567,4.039,3.531,7.328,7.49,8.313
	c3.955,0.983,8.117-0.535,10.51-3.838c28.904-39.892,50.738-82.607,64.893-126.959c0.165-0.518,0.249-0.532,0.449-0.565
	c0.505-0.082,1.006,0.144,1.096,0.263c0,0.001,0.072,0.143,0.07,0.541c-0.144,31.218-5.579,62.689-16.155,93.537
	c-1.07,3.123-0.53,6.574,1.443,9.221c1.974,2.647,5.129,4.154,8.426,4.014c9.273-0.379,25.92-2.154,44.127-9.269
	c-20.031,17.646-43.707,25.962-64.827,31.748c-2.749,0.753-5.047,2.644-6.314,5.197c-9.81,19.759-21.883,39.495-35.883,58.659
	c-1.906,2.61-2.434,5.981-1.415,9.05s3.458,5.454,6.548,6.406c16.371,5.041,53.98,12.13,123.754,4.009
	c-47.592,17.666-109.835,20.445-153.135,17.019c-3.08-0.235-6.119,0.958-8.2,3.255c-23.328,25.75-41.02,42.444-64.317,60.605
	C95.371,464.284,83.101,458.948,74.728,449.705z M441.274,387.237c-0.848,43.091-36.608,78.557-79.723,79.059
	c-0.291,0.003-0.582,0.005-0.879,0.005c-0.175-0.001-0.353,0-0.528,0c-33.228,0-65.987,6.453-97.377,19.184
	c-10.664,4.324-21.963,6.517-33.582,6.517c-33.739,0-71.492-0.016-101.002-18.193c19.369-15.704,35.964-31.55,55.684-53.075
	c27.745,1.817,101.342,3.715,161.915-20.548c9.148-3.665,14.002-13.256,11.541-22.806c-2.463-9.561-11.354-15.612-21.146-14.402
	c-53.529,6.64-87.126,4.216-106.654,0.609c10.181-14.93,19.242-30.141,27.045-45.402c25.154-7.223,55.919-19.239,79.912-46.222
	c5.691-6.401,5.975-15.594,0.689-22.354c-5.31-6.792-14.339-8.742-21.96-4.745c-12.093,6.345-24.104,9.588-33.794,11.228
	c8.202-28.16,12.419-56.735,12.55-85.148c0.049-10.514-7.175-19.005-17.566-20.648c-10.4-1.644-19.902,4.209-23.102,14.235
	c-11.396,35.709-28.033,70.34-49.564,103.216c-4.971-14.706-14.045-33.751-30.469-51.339c-6.073-6.505-15.749-7.471-23.007-2.292
	c-7.23,5.161-9.456,14.592-5.292,22.427c18.236,34.309,18.91,67.256,17.292,85.559c-6.169,7.018-12.606,13.949-19.251,20.729
	c-2.799-7.9-7.093-16.05-13.668-22.968c-6.643-6.987-16.726-8.473-25.09-3.695c-8.401,4.798-12.263,14.276-9.609,23.588
	c4.821,16.913,3.024,34.957,1.04,45.969c-19.377,15.598-32.284,23.889-38.71,27.672c-23.249-16.829-36.962-43.499-36.962-72.443
	c0-10.584,1.811-20.836,5.252-30.421c0.25-0.52,0.448-1.064,0.605-1.623c4.369-11.453,11.093-21.906,19.88-30.764
	c8.973,18.657,23.375,27.865,24.124,28.333c1.654,1.036,3.498,1.53,5.319,1.53c3.334,0,6.595-1.656,8.489-4.683
	c2.931-4.682,1.538-10.835-3.143-13.766c-0.158-0.102-15.838-10.399-20.515-30.768c-0.013-0.057-0.033-0.111-0.047-0.167
	c-0.033-0.132-0.061-0.265-0.099-0.396c-2.372-8.13-3.574-16.576-3.574-25.104c0-49.321,40.125-89.446,89.445-89.446l0.418,0.001
	c0.036,0,0.071,0,0.107,0c9.82,0,18.65-6.221,21.995-15.51c8.27-22.974,30.237-38.409,54.666-38.409
	c8.089,0,15.911,1.628,23.249,4.84c21.637,9.471,43.343,13.654,64.517,12.447c1.269-0.073,2.555-0.109,3.822-0.109
	c36.392,0,65.998,29.607,65.998,65.999v0.193c-0.034,11.267,6.76,21.158,17.308,25.198c30.016,11.497,50.183,40.823,50.183,72.973
	c0,8.752-1.435,17.341-4.264,25.528c-8.162,23.616-9.726,48.01-4.52,70.544C440.717,373.839,441.406,380.522,441.274,387.237z"/>
<path d="M415.264,297.398c-1.079,0-2.177-0.176-3.254-0.547c-5.223-1.797-8-7.486-6.203-12.709l0.126-0.366
	c1.797-5.223,7.49-8.001,12.709-6.203c5.223,1.797,8,7.486,6.203,12.709l-0.126,0.366
	C423.293,294.794,419.414,297.398,415.264,297.398z"/>
<path d="M361.207,446.298c-5.47,0-9.934-4.4-9.997-9.884c-0.064-5.522,4.36-10.051,9.883-10.115
	c21.733-0.254,39.763-18.13,40.189-39.849c0.067-3.425-0.28-6.814-1.033-10.077c-3.854-16.685-4.957-34.063-3.28-51.654
	c0.524-5.497,5.402-9.525,10.904-9.006c5.498,0.524,9.53,5.406,9.006,10.904c-1.473,15.444-0.512,30.671,2.857,45.256
	c1.124,4.867,1.643,9.903,1.542,14.971c-0.638,32.404-27.532,59.076-59.953,59.453C361.286,446.298,361.246,446.298,361.207,446.298
	z"/>
<g>
</g>
<g>
</g>
<g>
</g>
<g>
</g>
<g>
</g>
<g>
</g>
<g>
</g>
<g>
</g>
<g>
</g>
<g>
</g>
<g>
</g>
<g>
</g>
<g>
</g>
<g>
</g>
<g>
</g>
</svg>
