<?xml version="1.0" encoding="iso-8859-1"?>
<!-- Generator: Adobe Illustrator 19.0.0, SVG Export Plug-In . SVG Version: 6.00 Build 0)  -->
<svg version="1.1" id="Capa_1" xmlns="http://www.w3.org/2000/svg" xmlns:xlink="http://www.w3.org/1999/xlink" x="0px" y="0px"
	 viewBox="0 0 512 512" style="enable-background:new 0 0 512 512;" xml:space="preserve">
<path style="fill:#C88C64;" d="M233.015,11.006l117.08,117.08c9.067,9.067,23.769,9.067,32.835,0l0,0
	c9.067-9.067,9.067-23.769,0-32.835L297.681,10L233.015,11.006z"/>
<path style="fill:#46C373;" d="M391.851,160.07c0,0-22.882,160.076,108.68,251.207C512.884,277.16,446.262,192.128,391.851,160.07z"
	/>
<path style="fill:#A5DC69;" d="M304.092,86.429c0,0-244.186,130.992-290.603,392.916c-1.762,9.942,8.385,17.737,17.604,13.62
	C214.983,410.83,251.24,302.06,304.092,86.429z"/>
<g>
	<ellipse style="fill:#D7FA91;" cx="332.435" cy="350.005" rx="115.998" ry="151.998"/>
	
		<ellipse transform="matrix(0.5 -0.866 0.866 0.5 -97.1649 198.9998)" style="fill:#D7FA91;" cx="123.759" cy="183.648" rx="137.235" ry="104.726"/>
</g>
<path d="M480.094,242.779c-27.44-52.63-63.28-79.492-82.588-90.978l-14.534-11.285c2.516-1.434,4.886-3.215,7.03-5.36
	c6.274-6.274,9.729-14.617,9.729-23.49s-3.456-17.215-9.729-23.489l-85.251-85.25c-3.905-3.905-10.236-3.904-14.143,0
	c-3.905,3.905-3.905,10.237,0,14.143l85.251,85.251c2.497,2.497,3.872,5.816,3.872,9.347c0,3.531-1.375,6.851-3.872,9.347
	c-5.153,5.154-13.54,5.154-18.693,0L254.495,18.343c-0.246-0.274-0.505-0.534-0.779-0.779L240.087,3.935
	c-3.905-3.905-10.237-3.905-14.143,0c-3.905,3.905-3.905,10.237,0,14.143l0.463,0.463c-16.289,5.745-29.487,18.082-36.379,33.796
	c-25.529-11.83-55.642-11.541-85.739,1.019c-32.103,13.396-60.476,39.295-79.894,72.929C4.978,159.917-3.265,197.439,1.185,231.939
	c4.579,35.501,21.965,63.635,48.955,79.218c3.697,2.135,7.51,3.99,11.419,5.577C32.879,368.047,13.375,422.3,3.54,478.183
	c-1.434,8.148,1.724,16.366,8.242,21.448c3.976,3.1,8.779,4.696,13.631,4.696c3.07-0.001,6.16-0.64,9.071-1.941
	c33.444-14.96,62.064-30.885,87.493-48.685c4.524-3.167,5.625-9.402,2.458-13.927c-3.167-4.524-9.402-5.626-13.927-2.458
	c-24.377,17.064-51.916,32.376-84.19,46.812c-0.796,0.355-1.55,0.268-2.239-0.271c-0.494-0.385-1.041-1.08-0.842-2.208
	c9.713-55.188,29.271-108.76,58.15-159.349c5.255,0.867,10.623,1.308,16.077,1.308c14.841,0,30.304-3.216,45.758-9.665
	c32.102-13.396,60.476-39.296,79.894-72.929c19.114-33.106,27.391-69.979,23.402-104.029c10.681-8.159,20.48-15.137,28.994-20.922
	c-3.505,11.045-5.063,22.882-4.519,35.118c0.758,17.054,5.559,33.649,13.882,48.66c-15.744,8.212-30.149,20.553-42.406,36.615
	c-20.8,27.254-33.224,62.433-35.599,100.2c-12.155,19.39-25.541,36.768-40.898,53.04c-3.791,4.017-3.608,10.346,0.409,14.137
	c1.932,1.823,4.399,2.728,6.862,2.728c2.656,0,5.307-1.052,7.274-3.136c9.553-10.122,18.564-20.931,26.991-32.284
	c3.499,34.798,15.603,67.035,34.963,92.405C266.313,494.793,298.265,512,332.441,512s66.128-17.208,89.973-48.452
	c16.578-21.722,27.836-48.478,32.927-77.566c11.876,12.315,25.097,23.541,39.497,33.515c1.702,1.179,3.692,1.779,5.695,1.779
	c1.438,0,2.881-0.31,4.228-0.938c3.222-1.504,5.403-4.604,5.729-8.146C516.178,350.415,505.669,291.832,480.094,242.779z
	 M243.066,35.199l47.477,47.477c-9.752,5.81-26.941,16.635-48.408,32.57c-6.403-21.81-18.321-39.817-34.784-52.436
	C212.827,47.802,226.585,36.75,243.066,35.199z M205.795,231.015c-30.462,52.763-83.744,80.949-126.864,70.352
	c-0.168-0.045-0.335-0.087-0.504-0.123c-6.355-1.609-12.487-4.059-18.287-7.407c-21.464-12.393-35.356-35.282-39.119-64.457
	c-3.892-30.177,3.458-63.238,20.697-93.097c26.194-45.367,69.254-72.57,108.224-72.57c12.326,0,24.247,2.727,35.09,8.458
	c-0.136,1.677-0.225,3.368-0.225,5.08c0,5.523,4.477,10,10,10c2.707,0,5.159-1.08,6.959-2.828
	c12.512,12.298,20.874,29.384,24.172,49.738c0.008,0.051,0.016,0.103,0.025,0.154c0.191,1.191,0.372,2.389,0.528,3.602
	C230.383,168.095,223.033,201.157,205.795,231.015z M290.971,150.294c-0.854-19.219,4.733-37.127,15.827-51.363l36.226,36.226
	c2.444,2.444,5.178,4.425,8.091,5.947l30.19,23.439c-0.62,6.862-1.37,19.346-0.748,35.586
	c-15.036-7.951-31.306-12.124-48.119-12.124c-9.854,0-19.521,1.439-28.864,4.224C296.004,179.355,291.625,165.019,290.971,150.294z
	 M332.439,492.001c-58.448,0-105.998-63.7-105.998-141.998c0-61.234,29.084-113.537,69.718-133.427
	c2.644,3.273,5.476,6.432,8.498,9.454c1.953,1.953,4.512,2.929,7.071,2.929c2.559,0,5.119-0.976,7.071-2.929
	c3.905-3.905,3.905-10.237,0-14.143c-0.752-0.752-1.473-1.525-2.197-2.296c5.168-1.042,10.456-1.586,15.837-1.586
	c19.184,0,37.192,6.862,52.732,18.85c0.385,0.353,0.791,0.683,1.226,0.972c31.129,24.766,52.04,70.257,52.04,122.175
	C438.437,428.301,390.887,492.001,332.439,492.001z M491.768,392.248c-12.376-9.98-23.594-21.046-33.538-33.03
	c0.132-3.058,0.207-6.13,0.207-9.216c0-42.779-12.794-83.104-36.025-113.545c-6.423-8.417-13.44-15.805-20.925-22.122
	c-1.287-14.747-1.304-27.357-0.958-36.552C448.721,213.205,495.968,286.158,491.768,392.248z"/>
<path d="M192.471,94.877l-6.309-1.772c-7.334-2.061-13.457-7.17-16.796-14.017c-2.421-4.963-8.408-7.026-13.372-4.604
	c-4.964,2.421-7.025,8.408-4.604,13.372c5.838,11.97,16.541,20.901,29.362,24.504l6.31,1.772c0.905,0.254,1.814,0.375,2.71,0.375
	c4.369,0,8.382-2.885,9.622-7.298C200.888,101.893,197.788,96.371,192.471,94.877z"/>
<path d="M350.479,225.455c-8.543,8.571-20.373,13.192-32.468,12.689l-3.153-0.132c-5.534-0.234-10.179,4.054-10.411,9.572
	c-0.232,5.518,4.054,10.179,9.572,10.411l3.152,0.132c0.881,0.037,1.758,0.056,2.636,0.056c16.753,0,32.968-6.699,44.837-18.608
	c3.899-3.912,3.888-10.244-0.024-14.142C360.709,221.532,354.378,221.543,350.479,225.455z"/>
<path d="M140.803,413.767l-0.778,0.671c-4.19,3.598-4.67,9.911-1.072,14.102c1.978,2.304,4.776,3.485,7.591,3.485
	c2.306,0,4.624-0.793,6.51-2.413l0.837-0.722c4.176-3.614,4.632-9.93,1.018-14.105C151.294,410.608,144.978,410.153,140.803,413.767
	z"/>
<path d="M120.116,258.571c-8.902,3.715-25.932,8.734-39.977,0.625c-14.047-8.11-18.214-25.368-19.448-34.932
	c-1.313-10.179-0.705-21.136,1.807-32.568c1.185-5.394-2.228-10.728-7.622-11.913c-5.394-1.184-10.728,2.227-11.913,7.622
	c-3.007,13.688-3.716,26.95-2.108,39.417c1.707,13.231,7.781,37.279,29.285,49.694c9.005,5.199,18.422,7.033,27.234,7.033
	c12.228,0,23.288-3.535,30.443-6.52c5.097-2.127,7.505-7.982,5.379-13.08C131.069,258.851,125.211,256.446,120.116,258.571z"/>
<path d="M62.609,160.025c1.583,0.921,3.313,1.359,5.021,1.359c3.443,0,6.795-1.78,8.652-4.971l0.089-0.155
	c2.748-4.791,1.079-10.88-3.712-13.628c-4.79-2.749-10.914-1.07-13.662,3.721C56.219,151.125,57.836,157.247,62.609,160.025z"/>
<g>
</g>
<g>
</g>
<g>
</g>
<g>
</g>
<g>
</g>
<g>
</g>
<g>
</g>
<g>
</g>
<g>
</g>
<g>
</g>
<g>
</g>
<g>
</g>
<g>
</g>
<g>
</g>
<g>
</g>
</svg>
