<?xml version="1.0" encoding="iso-8859-1"?>
<!-- Generator: Adobe Illustrator 19.0.0, SVG Export Plug-In . SVG Version: 6.00 Build 0)  -->
<svg version="1.1" id="Capa_1" xmlns="http://www.w3.org/2000/svg" xmlns:xlink="http://www.w3.org/1999/xlink" x="0px" y="0px"
	 viewBox="0 0 512.001 512.001" style="enable-background:new 0 0 512.001 512.001;" xml:space="preserve">
<g>
	<path style="fill:#46C373;" d="M255.937,183.522l36.363-40.197c33.053-36.538,51.354-84.05,51.354-133.32l0,0h-10.05
		c-33.32,0-62.928,21.253-73.586,52.822l0,0c-2.703,8.005-4.081,16.396-4.081,24.845L255.937,183.522"/>
	<path style="fill:#46C373;" d="M255.937,198.665l-26.119-15.857c-45.03-27.338-94.485-46.608-146.141-56.942l0,0l16.897-11.64
		c23.905-16.467,54.851-18.702,80.874-5.839l0,0c12.228,6.044,22.708,15.113,30.446,26.345L255.937,198.665"/>
</g>
<g>
	<path style="fill:#A5DC69;" d="M256.064,198.665l26.119-15.857c45.03-27.338,94.485-46.608,146.141-56.942l0,0l-16.897-11.64
		c-23.905-16.467-54.852-18.702-80.874-5.839l0,0c-12.228,6.044-22.708,15.113-30.447,26.345L256.064,198.665"/>
	<path style="fill:#A5DC69;" d="M255.937,183.522l-36.363-40.197c-33.052-36.538-51.354-84.05-51.354-133.32l0,0h10.05
		c33.32,0,62.928,21.253,73.586,52.822l0,0c2.703,8.005,4.081,16.396,4.081,24.845L255.937,183.522"/>
</g>
<path style="fill:#FF5A5A;" d="M255.937,501.994l9.093-24.117c8.886-23.568,28.166-41.705,52.232-49.136l24.809-7.66
	c26.446-8.166,47.732-27.936,57.827-53.708l0,0c17.383-44.379,3.208-94.905-34.723-123.765l0,0
	c-18.856-14.347-40.585-24.457-63.705-29.641l0,0c-29.984-6.724-61.085-6.724-91.068,0l0,0
	c-23.119,5.184-44.849,15.295-63.705,29.641l0,0c-37.931,28.861-52.106,79.386-34.723,123.765l0,0
	c10.095,25.772,31.381,45.542,57.827,53.708l24.809,7.66c24.066,7.431,43.346,25.569,52.232,49.136L255.937,501.994z"/>
<path d="M248.863,312.104c-1.861,1.861-2.932,4.443-2.932,7.074c0,2.632,1.071,5.213,2.932,7.074
	c1.861,1.861,4.443,2.932,7.074,2.932s5.213-1.071,7.074-2.932s2.932-4.443,2.932-7.074c0-2.632-1.071-5.213-2.932-7.074
	c-1.861-1.861-4.443-2.932-7.074-2.932C253.305,309.174,250.724,310.243,248.863,312.104z"/>
<path d="M235.592,381.591h-25.348c-5.526,0-10.006,4.48-10.006,10.006s4.48,10.006,10.006,10.006h25.348
	c5.526,0,10.006-4.48,10.006-10.006S241.118,381.591,235.592,381.591z"/>
<path d="M149.706,354.579c-2.632,0-5.213,1.061-7.074,2.932c-1.861,1.861-2.932,4.433-2.932,7.074c0,2.632,1.071,5.213,2.932,7.074
	s4.443,2.932,7.074,2.932c2.642,0,5.213-1.071,7.074-2.932c1.871-1.861,2.932-4.443,2.932-7.074c0-2.642-1.061-5.213-2.932-7.074
	C154.919,355.64,152.347,354.579,149.706,354.579z"/>
<path d="M227.829,245.946c-1.209-5.391-6.557-8.78-11.953-7.573c-19.747,4.429-37.926,12.887-54.031,25.141
	c-21.271,16.184-33.263,41.881-32.08,68.739c0.236,5.37,4.666,9.565,9.989,9.565c0.148,0,0.298-0.003,0.448-0.01
	c5.52-0.243,9.799-4.916,9.555-10.437c-0.895-20.305,8.154-39.719,24.205-51.932c13.798-10.499,29.373-17.746,46.293-21.54
	C225.647,256.689,229.038,251.338,227.829,245.946z"/>
<path d="M434,117.628l-16.897-11.64c-24.088-16.596-54.599-20.325-81.733-10.504c11.962-26.64,18.289-55.708,18.289-85.478
	C353.66,4.48,349.18,0,343.654,0h-10.049c-33.001,0-62.724,18.42-77.668,46.992C240.993,18.42,211.271,0,178.269,0H168.22
	c-5.526,0-10.006,4.48-10.006,10.006c0,29.75,6.319,58.799,18.266,85.423c-27.097-9.753-57.538-6.006-81.582,10.558l-16.897,11.641
	c-3.31,2.279-4.935,6.319-4.124,10.256c0.81,3.936,3.897,7.006,7.838,7.795c50.663,10.136,98.746,28.871,142.911,55.683
	l13.674,8.301c-10.132,0.812-20.199,2.322-30.085,4.54c-24.697,5.538-47.432,16.116-67.574,31.442
	c-20.358,15.489-34.77,36.694-41.679,61.323c-6.909,24.629-5.631,50.237,3.698,74.055c11.269,28.773,34.666,50.503,64.192,59.619
	l24.809,7.66c21.267,6.567,37.969,22.279,45.821,43.106l9.093,24.118c1.469,3.896,5.198,6.476,9.362,6.476
	c4.164,0,7.894-2.579,9.362-6.476l9.093-24.118c7.853-20.827,24.554-36.538,45.821-43.106l24.809-7.66
	c29.525-9.116,52.922-30.847,64.192-59.619c9.329-23.818,10.608-49.425,3.698-74.055c-6.91-24.629-21.322-45.834-41.679-61.323
	c-20.142-15.326-42.878-25.905-67.574-31.442c-9.85-2.208-19.878-3.716-29.971-4.532l13.686-8.309
	c44.165-26.813,92.248-45.547,142.911-55.683c3.94-0.788,7.027-3.858,7.838-7.795C438.934,123.946,437.31,119.907,434,117.628z
	 M269.498,66.029c9.27-27.455,34.925-45.924,63.887-46.016c-2.28,43.241-19.3,84.315-48.505,116.6l-16.436,18.169
	c3.434-18.384,10.366-36,20.56-51.933l19.221-30.045c2.978-4.655,1.619-10.842-3.037-13.821c-4.655-2.978-10.841-1.618-13.821,3.037
	l-19.221,30.045c-2.203,3.444-4.268,6.96-6.203,10.535V87.673C265.942,80.298,267.139,73.016,269.498,66.029z M242.376,66.03
	c2.359,6.986,3.555,14.268,3.555,21.643v14.926c-1.934-3.575-3.999-7.091-6.203-10.535l-19.221-30.045
	c-2.978-4.655-9.166-6.014-13.821-3.037c-4.655,2.979-6.014,9.166-3.037,13.821l19.221,30.045
	c10.194,15.933,17.126,33.549,20.56,51.933l-16.436-18.169c-29.205-32.284-46.225-73.359-48.505-116.6
	C207.451,20.105,233.106,38.573,242.376,66.03z M108.22,121.158c20.613-13.197,46.752-14.696,68.794-3.8
	c10.673,5.275,19.885,13.247,26.64,23.051l17.897,25.981C185.859,146.319,147.879,131.162,108.22,121.158z M359.117,251.569
	c19.032,14.481,31.469,35.19,36.065,57.604h-99.556c-5.526,0-10.006,4.48-10.006,10.006s4.48,10.006,10.006,10.006h101.552
	c-0.038,7.924-1.059,15.892-3.096,23.723h-63.103c-5.526,0-10.006,4.48-10.006,10.006s4.48,10.006,10.006,10.006H386.3
	c-10.022,18.474-26.772,32.298-47.181,38.6l-24.809,7.66c-26.978,8.33-48.215,28.158-58.374,54.461
	c-10.159-26.303-31.396-46.132-58.374-54.461l-24.809-7.66c-23.67-7.309-42.427-24.73-51.463-47.797
	c-15.673-40.013-2.734-86.132,31.465-112.153c17.835-13.571,37.967-22.937,59.835-27.841c14.18-3.18,28.761-4.769,43.345-4.769
	c14.581,0,29.169,1.59,43.345,4.769C321.151,228.632,341.282,238,359.117,251.569z M290.448,166.39l17.897-25.98
	c6.755-9.805,15.967-17.776,26.64-23.052c9.812-4.85,20.433-7.244,31.019-7.244c13.196,0,26.337,3.721,37.775,11.044
	C364.123,131.162,326.142,146.319,290.448,166.39z"/>
<g>
</g>
<g>
</g>
<g>
</g>
<g>
</g>
<g>
</g>
<g>
</g>
<g>
</g>
<g>
</g>
<g>
</g>
<g>
</g>
<g>
</g>
<g>
</g>
<g>
</g>
<g>
</g>
<g>
</g>
</svg>
